<svg width="25" height="25" viewBox="0 0 25 25" fill="none" xmlns="http://www.w3.org/2000/svg">
<g clip-path="url(#clip0_270_2265)">
<g clip-path="url(#clip1_270_2265)">
<path d="M20.2395 14.9494C20.2812 14.6161 20.3125 14.2827 20.3125 13.9286C20.3125 13.5744 20.2812 13.2411 20.2395 12.9077L22.4375 11.189C22.6354 11.0327 22.6875 10.7515 22.5625 10.5223L20.4791 6.91815C20.3854 6.75149 20.2083 6.65774 20.0208 6.65774C19.9583 6.65774 19.8958 6.66815 19.8437 6.68899L17.25 7.73065C16.7083 7.31399 16.125 6.97024 15.4895 6.70982L15.0937 3.9494C15.0625 3.6994 14.8437 3.5119 14.5833 3.5119H10.4166C10.1562 3.5119 9.93745 3.6994 9.9062 3.9494L9.51037 6.70982C8.87495 6.97024 8.29162 7.3244 7.74995 7.73065L5.1562 6.68899C5.0937 6.66815 5.0312 6.65774 4.9687 6.65774C4.79162 6.65774 4.61454 6.75149 4.52079 6.91815L2.43745 10.5223C2.30204 10.7515 2.36454 11.0327 2.56245 11.189L4.76037 12.9077C4.71871 13.2411 4.68745 13.5848 4.68745 13.9286C4.68745 14.2723 4.71871 14.6161 4.76037 14.9494L2.56245 16.6682C2.36454 16.8244 2.31245 17.1057 2.43745 17.3348L4.52079 20.939C4.61454 21.1057 4.79162 21.1994 4.97912 21.1994C5.04162 21.1994 5.10412 21.189 5.1562 21.1682L7.74995 20.1265C8.29162 20.5432 8.87495 20.8869 9.51037 21.1473L9.9062 23.9077C9.93745 24.1577 10.1562 24.3452 10.4166 24.3452H14.5833C14.8437 24.3452 15.0625 24.1577 15.0937 23.9077L15.4895 21.1473C16.125 20.8869 16.7083 20.5327 17.25 20.1265L19.8437 21.1682C19.9062 21.189 19.9687 21.1994 20.0312 21.1994C20.2083 21.1994 20.3854 21.1057 20.4791 20.939L22.5625 17.3348C22.6875 17.1057 22.6354 16.8244 22.4375 16.6682L20.2395 14.9494V14.9494ZM18.177 13.1682C18.2187 13.4911 18.2291 13.7098 18.2291 13.9286C18.2291 14.1473 18.2083 14.3765 18.177 14.689L18.0312 15.8661L18.9583 16.5952L20.0833 17.4702L19.3541 18.7307L18.0312 18.1994L16.9479 17.7619L16.0104 18.4702C15.5625 18.8036 15.1354 19.0536 14.7083 19.2307L13.6041 19.6786L13.4375 20.8557L13.2291 22.2619H11.7708L11.5729 20.8557L11.4062 19.6786L10.302 19.2307C9.85412 19.0432 9.43745 18.8036 9.02079 18.4911L8.07287 17.7619L6.9687 18.2098L5.64579 18.7411L4.91662 17.4807L6.04162 16.6057L6.9687 15.8765L6.82287 14.6994C6.79162 14.3765 6.77079 14.1369 6.77079 13.9286C6.77079 13.7202 6.79162 13.4807 6.82287 13.1682L6.9687 11.9911L6.04162 11.2619L4.91662 10.3869L5.64579 9.12649L6.9687 9.65774L8.05204 10.0952L8.98954 9.3869C9.43745 9.05357 9.86454 8.80357 10.2916 8.62649L11.3958 8.17857L11.5625 7.00149L11.7708 5.59524H13.2187L13.4166 7.00149L13.5833 8.17857L14.6875 8.62649C15.1354 8.81399 15.552 9.05357 15.9687 9.36607L16.9166 10.0952L18.0208 9.64732L19.3437 9.11607L20.0729 10.3765L18.9583 11.2619L18.0312 11.9911L18.177 13.1682ZM12.5 9.7619C10.1979 9.7619 8.33329 11.6265 8.33329 13.9286C8.33329 16.2307 10.1979 18.0952 12.5 18.0952C14.802 18.0952 16.6666 16.2307 16.6666 13.9286C16.6666 11.6265 14.802 9.7619 12.5 9.7619ZM12.5 16.0119C11.3541 16.0119 10.4166 15.0744 10.4166 13.9286C10.4166 12.7827 11.3541 11.8452 12.5 11.8452C13.6458 11.8452 14.5833 12.7827 14.5833 13.9286C14.5833 15.0744 13.6458 16.0119 12.5 16.0119Z" fill="#CFD2DC"/>
</g>
</g>
<defs>
<clipPath id="clip0_270_2265">
<rect width="25" height="25" fill="white"/>
</clipPath>
<clipPath id="clip1_270_2265">
<rect width="25" height="25" fill="white" transform="translate(0 1.42859)"/>
</clipPath>
</defs>
</svg>
